PathFileType	4	(X/Y/Z)	C:/Users/beibeiliu/ov580/test_trc\sequence.37_training_dense_left.trc
DataRate	CameraRate	NumFrames	NumMarkers	Units	OrigDataRate	OrigDataStartFrame	OrigNumFrames
120	120	17	19	mm	120	236	269
Frame#	Time	ThumbCMC			ThumbMCP			ThumbIP			ThumbTip			IndexMCP			IndexPIP			IndexTip			MiddleMCP			MiddlePIP			MiddleTip			RingMCP			RingPIP			RingTip			PinkyMCP			PinkyPIP			PinkyTip			BackHand1			BackHand2			BackHand3	
		X0	Y0	Z0	X1	Y1	Z1	X2	Y2	Z2	X3	Y3	Z3	X4	Y4	Z4	X5	Y5	Z5	X6	Y6	Z6	X7	Y7	Z7	X8	Y8	Z8	X9	Y9	Z9	X10	Y10	Z10	X11	Y11	Z11	X12	Y12	Z12	X13	Y13	Z13	X14	Y14	Z14	X15	Y15	Z15	X16	Y16	Z16	X17	Y17	Z17	X18	Y18	Z18	
235	1.95833	-132.385	-7.14065	52.4068	-113.367	-11.4316	30.752	-103.503	-15.7771	10.4185	-101.026	-19.9509	-11.2204	-133.612	-10.399	-20.1614	-126.855	-15.8546	-37.8562	-119.914	-23.5109	-63.3067	-154.259	-14.0691	-29.8372	-146.581	-19.5405	-50.852	-148.231	-23.9558	-73.1872	-174.181	-16.5936	-23.1752	-171.376	-20.7928	-43.0163	-171.865	-23.5208	-61.6061	-193.136	-20.268	-8.20843	-194.91	-23.4605	-27.3521	-197.258	-23.0884	-42.1197	-177.639	-1.97103	21.9232	-181.151	5.35126	47.0655	-149.405	9.22351	31.4278	
236	1.96667	-128.708	-5.84886	51.8819	-110.801	-11.2184	31.9683	-102.159	-14.4623	9.13223	-96.5483	-18.6585	-9.72984	-128.648	-9.25892	-21.239	-126.791	-14.9758	-39.3671	-122.222	-20.9886	-64.4911	-151.666	-11.6043	-24.3556	-148.788	-18.6261	-51.2611	-146.491	-22.0633	-71.6917	-171.41	-14.0894	-19.5543	-173.072	-19.4926	-45.085	-171.221	-22.5356	-64.0563	-193.187	-18.2858	-6.54633	-193.731	-20.4193	-28.4386	-194.583	-21.0317	-46.0544	-173.879	1.49262	23.2892	-179.97	8.53256	44.8034	-151.486	9.27581	32.8173	
237	1.975	-133.375	-4.56554	46.9715	-112.406	-9.08361	28.0182	-106.734	-13.853	9.55997	-95.4119	-17.6341	-9.3	-128.642	-7.50419	-21.6649	-123.342	-12.8497	-37.1664	-121.934	-18.8046	-60.0703	-148.805	-9.64679	-27.4592	-144.892	-15.928	-48.9924	-146.81	-21.0144	-73.9841	-171.919	-12.5705	-20.6451	-170.172	-16.8608	-40.8245	-166.857	-20.3131	-61.1458	-187.432	-16.2036	-10.0799	-192.904	-18.5543	-23.7536	-196.34	-20.8256	-47.1122	-176.672	1.41378	21.6968	-176.98	10.5127	43.1578	-153.458	11.8746	33.4136	
238	1.98333	-129.39	-2.70225	49.7208	-112.527	-9.11577	32.2323	-101.536	-12.0108	8.88096	-96.1044	-15.3356	-8.70181	-127.279	-6.03886	-18.4561	-122.051	-12.9974	-41.8559	-116.353	-18.5623	-61.2753	-149.848	-8.61739	-28.0066	-149.365	-15.6814	-50.3125	-144.352	-20.4539	-74.624	-169.39	-11.6439	-23.2487	-168.943	-15.8296	-40.2884	-167.825	-19.4489	-61.6243	-191.026	-14.8297	-10.3288	-191.918	-17.91	-27.9403	-196.84	-19.3817	-45.1895	-173.164	3.60711	23.0135	-179.141	11.8484	41.808	-150.313	11.3216	36.6944	
239	1.99167	-129.897	-2.45932	50.6821	-114.887	-8.66852	30.0528	-104.085	-11.4771	8.65921	-94.0802	-15.1738	-10.8049	-131.411	-6.32677	-19.642	-122.034	-12.0398	-39.2709	-119.246	-18.4128	-62.95	-151.251	-8.03878	-27.9299	-150.713	-15.4428	-49.7395	-146.682	-20.956	-75.5209	-172.417	-11.1761	-21.4352	-169.631	-15.7837	-44.1747	-170.358	-19.3836	-61.1026	-188.111	-14.4158	-6.38167	-194.082	-17.3778	-29.7764	-196.148	-17.274	-43.3507	-175.915	3.14552	19.1661	-180.102	12.4306	45.6019	-151.545	13.1055	33.6203	
240	2	-130.575	-2.90055	46.5483	-113.17	-8.62028	31.6763	-103.157	-11.5534	8.27799	-100.047	-16.3574	-11.2726	-132.48	-6.35272	-20.9651	-126.161	-12.618	-44.6939	-120.095	-17.5647	-60.9406	-153.999	-9.46321	-32.1303	-150.84	-14.46	-48.292	-145.849	-20.6745	-76.8678	-169.478	-10.7512	-23.5021	-170.04	-15.7441	-43.8634	-170.382	-18.9784	-66.3396	-194.009	-14.2652	-11.3862	-196.208	-17.6108	-28.1033	-197.498	-17.616	-46.4762	-177.829	4.72356	19.9251	-177.263	10.2067	43.1504	-150.917	13.7158	32.2514	
241	2.00833	-134.546	-3.28874	48.4904	-113.532	-8.73615	28.3392	-104.033	-10.7747	3.13391	-100.57	-16.9692	-11.4022	-131.024	-5.91869	-21.7614	-125.689	-11.5415	-41.9486	-122.549	-18.8125	-63.3025	-151.796	-7.90508	-30.2405	-147.844	-14.5226	-51.3957	-146.771	-20.4827	-75.63	-171.87	-10.345	-24.9725	-173.21	-15.4118	-48.8417	-168.445	-19.9995	-68.6979	-194.436	-15.5136	-11.5524	-196.906	-18.4426	-31.5314	-201.273	-19.7399	-47.6978	-178.037	4.8822	19.0083	-180.515	9.79734	42.8226	-154.147	11.3566	27.4177	
242	2.01667	-131.112	-3.1314	45.8536	-116.928	-8.9362	24.4644	-104.153	-12.2346	3.97997	-96.2063	-17.3811	-16.0112	-129.473	-6.86023	-25.8517	-126.817	-12.7696	-46.3668	-123.148	-19.9717	-67.5221	-153.323	-9.54906	-33.2649	-146.792	-15.7326	-54.6569	-148.711	-20.9537	-75.7115	-175.915	-11.0438	-25.7842	-169.204	-16.2278	-48.4284	-171.29	-20.537	-70.6017	-192.632	-14.6667	-13.3693	-193.705	-17.3491	-31.5819	-201.38	-19.5961	-50.7958	-173.784	3.9454	17.4994	-177.88	9.626	42.7094	-150.829	12.4973	27.0914	
243	2.025	-132.042	-4.23829	45.1654	-113.704	-10.2456	26.1565	-106.912	-14.3193	3.2644	-98.0655	-19.1694	-14.354	-132.757	-7.87126	-25.9255	-129.33	-14.0221	-45.6263	-122.111	-20.3784	-68.1351	-152.118	-10.9569	-33.5212	-151.05	-16.7246	-54.3209	-151.347	-23.2036	-78.0763	-174.896	-12.9018	-23.5148	-170.08	-16.3725	-45.0044	-172.179	-21.4846	-70.8412	-192.409	-16.0239	-15.0637	-196.458	-18.3936	-31.2093	-199.636	-20.9064	-49.1948	-173.289	2.08117	13.863	-175.682	10.4334	40.141	-154.789	11.2996	27.9734	
244	2.03333	-132.508	-5.93304	42.8356	-112.169	-10.5707	27.1296	-106.12	-14.7622	5.47566	-96.6713	-19.5695	-16.7565	-132.064	-8.91775	-23.3978	-129.487	-14.2029	-44.2145	-120.123	-21.2006	-66.2286	-152.214	-10.7403	-33.599	-153.535	-18.3457	-53.5026	-151.602	-24.0304	-77.7482	-172.219	-13.1667	-25.5436	-170.974	-18.3588	-49.947	-174.373	-21.9772	-69.8827	-192.76	-16.6952	-12.1408	-197.755	-19.2246	-28.2835	-201.254	-20.6087	-48.6519	-177.66	1.5716	17.2515	-177.135	10.2232	37.9749	-148.89	9.80491	30.4986	
245	2.04167	-131.06	-5.82261	46.3559	-110.854	-11.404	22.3451	-103.988	-15.9927	5.34148	-98.6198	-21.6725	-12.5891	-132.4	-10.4281	-25.7767	-127.895	-16.4566	-46.1083	-120.515	-21.9064	-67.5881	-151.739	-11.4158	-29.9207	-152.682	-18.9985	-52.8339	-152.563	-25.1867	-78.0114	-170.949	-13.2724	-26.2652	-173.212	-19.3194	-48.9302	-174.723	-23.0625	-66.5513	-194.535	-17.6454	-10.2839	-195.244	-19.7133	-28.7389	-200.852	-20.6176	-48.2889	-175.511	1.24996	14.3251	-176.256	8.8343	39.5989	-149.081	9.90026	29.2811	
246	2.05	-128.268	-6.74167	44.5795	-112.114	-12.2546	22.1725	-105.787	-16.9333	6.73462	-98.2785	-22.2131	-12.4261	-131.922	-11.3466	-26.844	-126.734	-16.6316	-47.7085	-125.034	-24.3784	-68.2671	-151.357	-11.7905	-31.5486	-149.683	-19.7648	-55.9903	-146.758	-24.8532	-76.7282	-175.706	-14.0189	-24.4763	-169.295	-19.2079	-48.9514	-173.378	-24.4508	-69.1832	-191.746	-18.1715	-14.0896	-195.293	-21.0493	-32.8996	-198.955	-22.794	-45.8392	-172.333	1.49353	13.8865	-176.027	8.04933	42.2156	-149.379	8.26617	25.7652	
247	2.05833	-131.826	-7.6387	44.2161	-116.377	-15.111	26.2006	-105.78	-16.629	3.27622	-98.4087	-21.9444	-11.0889	-128.174	-10.6962	-24.2742	-125.902	-17.0466	-45.048	-120.899	-23.913	-65.9266	-150.873	-13.1981	-31.8647	-148.068	-19.7646	-53.0457	-147.391	-27.1654	-80.0768	-173.981	-14.6217	-24.3877	-174.317	-20.5227	-48.4019	-173.079	-25.4212	-69.9763	-193.536	-18.56	-11.9895	-194.383	-21.782	-31.4245	-197.446	-21.8452	-49.0124	-176.911	0.669808	14.2415	-176.81	8.56042	39.6884	-152.434	8.95159	30.4019	
248	2.06667	-129.928	-7.77247	44.8978	-115.147	-14.3196	26.8666	-105.602	-17.9645	7.18222	-97.6666	-22.6882	-12.975	-132.28	-12.0849	-22.4324	-125.79	-18.2014	-44.8411	-124.078	-25.0669	-66.7961	-154.305	-13.562	-31.3677	-146.555	-20.0047	-55.2774	-146.226	-25.6338	-76.6214	-172.537	-15.2974	-24.4463	-169.94	-20.5515	-47.4496	-169.644	-24.5218	-66.3183	-193.139	-19.008	-11.4266	-195.917	-22.9661	-30.9822	-201.68	-24.0073	-51.6809	-174.161	-0.255471	14.3218	-175.937	9.63597	39.9999	-152.194	6.1839	30.2605	
249	2.075	-130.823	-7.51735	43.0063	-114.894	-14.1209	25.591	-105.035	-17.8177	2.60619	-96.0208	-23.563	-11.2347	-132.048	-12.3363	-26.5358	-127.668	-18.6147	-43.509	-122.164	-25.7346	-65.1114	-153.494	-14.3495	-30.3568	-151.117	-20.9268	-53.3916	-150.432	-27.5605	-79.0577	-174.27	-15.9846	-25.418	-172.478	-21.3077	-49.9448	-171.45	-26.786	-71.6732	-193.321	-18.5064	-13.7851	-198.502	-22.8085	-29.7566	-202.924	-24.0145	-49.2985	-179.305	1.38052	14.369	-176.89	6.94086	40.3395	-150.448	8.2346	30.7406	
250	2.08333	-135.559	-8.38173	41.8414	-114.257	-15.087	24.4331	-106.528	-18.7913	2.41608	-98.7165	-23.6465	-10.413	-129.543	-11.7319	-24.4374	-130.762	-18.2529	-44.8637	-124.346	-26.6977	-70.9492	-154.28	-14.8744	-35.6642	-148.65	-21.8903	-55.0839	-149.973	-27.5064	-77.7294	-172.689	-16.3228	-25.5513	-176.46	-22.2315	-48.6418	-172.943	-26.5834	-68.0271	-192.798	-18.8865	-12.3689	-198.576	-23.7711	-30.9162	-202.383	-24.4389	-48.1573	-175.134	1.8132	15.2669	-177.084	7.38099	40.2229	-153.323	6.58628	29.578	
251	2.09167	-132.324	-8.20271	45.354	-115.595	-15.916	27.1527	-107.778	-19.8152	3.71226	-100.92	-23.2144	-14.4274	-132.399	-12.657	-26.4413	-129.222	-19.5306	-46.6597	-124.246	-26.7561	-66.4658	-152.514	-15.1956	-33.5937	-151.879	-21.8214	-53.7714	-149.646	-27.9705	-77.8356	-174.601	-15.944	-28.6713	-173.3	-21.2224	-48.0119	-174.588	-27.1173	-69.4047	-192.637	-19.8977	-11.36	-198.116	-22.9098	-30.3407	-201.624	-24.3208	-51.9714	-174.803	1.66929	13.3799	-178.124	9.11623	40.5048	-155.652	8.39042	27.4398	
